REM DIRINDEX 1\2,1\3,1\4
REM DIRNAME cjc141,folder01,folder02,folder03
TITLE ""
FILE "Track55.mp3" MP3
  TRACK 01 AUDIO
    TITLE "4:cjc141_317"
    INDEX 01 00:00:00
  TRACK 02 AUDIO
    TITLE "2:cjc141_318"
    INDEX 01 00:01:71
  TRACK 03 AUDIO
    TITLE "0:"
    INDEX 01 00:25:19
  TRACK 04 AUDIO
    TITLE "3:cjc141_319"
    INDEX 01 00:26:71
  TRACK 05 AUDIO
    TITLE "0:"
    INDEX 01 00:47:13
